<?xml version="1.0" standalone="no"?>
<!DOCTYPE svg PUBLIC "-//W3C//DTD SVG 20010904//EN"
 "http://www.w3.org/TR/2001/REC-SVG-20010904/DTD/svg10.dtd">
<svg version="1.0" xmlns="http://www.w3.org/2000/svg"
 width="917.000000pt" height="339.000000pt" viewBox="0 0 917.000000 339.000000"
 preserveAspectRatio="xMidYMid meet">

<g transform="translate(0.000000,339.000000) scale(0.100000,-0.100000)"
fill="#000000" stroke="none">
<path d="M3772 2544 c-73 -19 -103 -36 -145 -83 -44 -48 -74 -140 -83 -251
l-7 -80 -83 0 -84 0 0 -93 0 -93 -56 53 c-61 58 -167 114 -259 138 -142 37
-358 12 -485 -56 -76 -40 -178 -147 -219 -228 -34 -67 -71 -194 -71 -244 l0
-30 -41 46 c-25 29 -63 57 -99 74 l-59 27 52 28 c129 69 194 221 168 394 -25
170 -104 251 -293 304 -103 29 -334 41 -703 38 l-310 -3 -3 -717 -2 -718 240
0 240 0 0 250 0 250 100 0 c166 0 236 -25 266 -96 8 -18 16 -90 19 -170 5
-131 10 -175 21 -216 5 -17 25 -18 245 -18 l239 0 0 25 c0 15 -6 25 -15 25
-27 0 -35 38 -34 162 0 116 1 121 14 86 70 -190 307 -308 590 -295 61 3 137
13 170 22 346 94 489 439 331 798 -7 15 -1 17 58 17 l66 0 0 -415 0 -415 210
0 210 0 0 415 0 415 80 0 80 0 0 -415 0 -415 209 0 209 0 4 263 c5 291 11 323
71 385 36 37 107 62 176 62 69 0 72 -5 60 -80 -6 -36 -8 -98 -4 -138 21 -251
170 -419 423 -478 98 -23 321 -15 417 16 139 44 249 130 297 230 l25 51 12
-43 c21 -69 46 -111 94 -155 60 -55 109 -79 214 -104 121 -29 371 -23 478 11
132 42 207 96 250 179 l24 46 1 -122 0 -123 209 0 210 0 3 318 c3 297 4 319
23 352 25 43 76 70 133 70 61 0 100 -24 123 -73 17 -38 19 -69 19 -354 l0
-313 210 0 210 0 0 348 c0 379 -5 432 -51 529 -56 118 -161 181 -320 190 -134
9 -211 -19 -306 -111 l-43 -40 0 257 0 257 -210 0 -210 0 0 -492 c0 -452 -1
-491 -16 -463 -21 41 -71 91 -119 119 -46 27 -191 73 -348 110 -129 30 -157
45 -157 86 0 36 21 57 66 66 57 11 106 -2 137 -36 15 -17 27 -37 27 -45 0 -13
29 -15 191 -15 l191 0 -7 38 c-28 150 -134 240 -325 276 -173 33 -369 14 -497
-49 -132 -65 -191 -164 -181 -304 12 -169 125 -252 416 -307 171 -32 212 -54
212 -116 0 -33 -5 -41 -32 -58 -22 -14 -51 -20 -88 -20 -71 0 -116 27 -137 80
l-16 40 -389 0 -389 0 -25 -29 c-95 -113 -301 -50 -329 101 l-7 38 393 2 394
3 -2 71 c-4 148 -59 287 -154 389 -113 120 -237 174 -419 182 -130 6 -226 -12
-330 -64 -91 -44 -194 -142 -233 -222 l-27 -55 0 182 0 182 -58 0 c-135 0
-226 -59 -287 -183 l-35 -72 0 103 0 102 -270 0 -270 0 0 54 c0 79 25 104 108
113 l62 6 0 128 0 129 -152 -1 c-99 0 -172 -5 -206 -15z m-1976 -423 c93 -52
99 -181 11 -228 -25 -14 -63 -18 -184 -21 l-153 -4 0 142 0 142 143 -4 c126
-3 147 -6 183 -27z m1187 -248 c43 -25 77 -78 77 -119 l0 -34 -185 0 c-121 0
-185 4 -185 10 0 21 31 85 53 109 12 13 40 32 62 43 49 23 130 19 178 -9z
m2545 13 c36 -19 78 -65 91 -99 22 -59 27 -57 -174 -57 -176 0 -185 1 -185 19
0 52 43 114 95 137 40 18 139 18 173 0z m-2471 -417 c-12 -93 -94 -159 -196
-159 -60 0 -98 17 -134 60 l-26 30 -194 0 c-193 0 -195 0 -201 23 -3 12 -6 37
-6 55 l0 32 381 0 382 0 -6 -41z"/>
</g>
</svg>
